<?xml version="1.0" encoding="UTF-8"?>
<svg width="79px" height="76px" viewBox="0 0 79 76" version="1.1" xmlns="http://www.w3.org/2000/svg" xmlns:xlink="http://www.w3.org/1999/xlink">
    <!-- Generator: Sketch 46.2 (44496) - http://www.bohemiancoding.com/sketch -->
    <title>Group 2</title>
    <desc>Created with Sketch.</desc>
    <defs>
        <path d="M7.35245902,42.1967213 C7.55480167,40.6056282 9.65265442,42.1967213 11.0925696,42.1967213 C11.7104145,42.1967213 16.1473796,43.0726247 24.295082,43.0726247 C27.3026512,43.0726247 32.9501922,42.7806569 41.2377049,42.1967213 L40.9180328,70.647541 C37.5885206,72.7490461 35.0949419,73.9412667 33.4372967,74.2242029 C29.968529,74.8162716 26.4980727,75.5033614 24.295082,75.5033614 C21.9390227,75.5033614 18.106314,74.9014064 14.302469,74.2242029 C12.7675473,73.9509387 10.4508773,72.6521607 7.35245902,70.3278689 C7.21756391,52.6344993 7.21756391,43.2574501 7.35245902,42.1967213 Z" id="path-1"></path>
        <path d="M7.35245902,58.8196721 C14.7374133,60.9508197 20.3849543,62.0163934 24.295082,62.0163934 C28.2052097,62.0163934 33.8527507,60.9508197 41.2377049,58.8196721 L41.2377049,66.1721311 C34.1306554,68.3190611 28.4831144,69.3119338 24.295082,69.1507495 C20.1070495,68.9895652 14.4595086,67.9966924 7.35245902,66.1721311 L7.35245902,58.8196721 Z" id="path-2"></path>
        <rect id="path-3" x="0" y="0" width="8.63114754" height="3.51639344"></rect>
    </defs>
    <g id="Welcome" stroke="none" stroke-width="1" fill="none" fill-rule="evenodd">
        <g id="Desktop" transform="translate(-166.000000, -924.000000)">
            <g id="Group-2" transform="translate(167.000000, 924.000000)">
                <ellipse id="Oval" stroke="#000000" fill="#232323" cx="25.2540984" cy="38.3606557" rx="25.2540984" ry="4.79508197"></ellipse>
                <ellipse id="Oval" stroke="#000000" fill="#FFFFFF" cx="25.5737705" cy="38.3606557" rx="13.4262295" ry="1.59836066"></ellipse>
                <g id="Rectangle-3">
                    <use fill="#000000" fill-rule="evenodd" xlink:href="#path-1"></use>
                    <path stroke="#000000" stroke-width="1" d="M7.850557,70.0758595 C10.790385,72.2628773 12.9857776,73.4819286 14.3901067,73.7319432 C19.1225384,74.5744642 22.2747362,75.0033614 24.295082,75.0033614 C25.8452882,75.0033614 27.2677627,74.7937086 32.0890434,73.9502844 C32.5850384,73.8635161 32.9673316,73.7972155 33.3392902,73.7337006 L33.3531706,73.7313309 C34.8915492,73.4687518 37.2589401,72.3479943 40.4211277,70.3692876 L40.7316425,42.7334654 C32.7276009,43.2928832 27.251828,43.5726247 24.295082,43.5726247 C20.726356,43.5726247 17.62147,43.410373 14.8207165,43.1322254 C13.4600664,42.9970969 11.1549841,42.6967213 11.0925696,42.6967213 C10.7017473,42.6967213 10.2914419,42.6101222 9.74299283,42.4387032 C9.63353031,42.4044905 9.52614567,42.3694801 9.37013315,42.3175976 C8.58983931,42.0581081 8.33835832,41.9895688 8.09206624,41.9895688 C7.91097929,41.9895688 7.87933449,42.0170553 7.84846422,42.2597993 C7.71884552,43.2790378 7.71823502,52.631536 7.850557,70.0758595 Z"></path>
                </g>
                <polygon id="Star" fill="#E91E63" points="14.545082 13.5061475 11.2568571 15.2348697 11.8848522 11.5733775 9.22462236 8.98029427 12.9009695 8.44608976 14.545082 5.1147541 16.1891944 8.44608976 19.8655416 8.98029427 17.2053118 11.5733775 17.8333068 15.2348697"></polygon>
                <polygon id="Star" fill="#4CAF50" points="31.4877049 37.3217213 28.7631757 38.7540911 29.2835145 35.7202832 27.0793241 33.5717286 30.1254403 33.129102 31.4877049 30.3688525 32.8499695 33.129102 35.8960857 33.5717286 33.6918953 35.7202832 34.2122341 38.7540911"></polygon>
                <polygon id="Star" fill="#FFEB3B" points="19.5 29.25 15.178333 31.5220348 16.003698 26.7097879 12.5073959 23.3017357 17.3391665 22.5996383 19.5 18.2213115 21.6608335 22.5996383 26.4926041 23.3017357 22.996302 26.7097879 23.821667 31.5220348"></polygon>
                <polygon id="Star" fill="#2196F3" points="34.6844262 15.5840164 28.5777229 18.7945003 29.7439994 11.9945862 24.8035727 7.17886032 31.6310746 6.18676623 34.6844262 0 37.7377779 6.18676623 44.5652798 7.17886032 39.624853 11.9945862 40.7911296 18.7945003"></polygon>
                <g id="Rectangle-4">
                    <use fill="#FFFFFF" fill-rule="evenodd" xlink:href="#path-2"></use>
                    <path stroke="#000000" stroke-width="1" d="M40.7377049,59.482945 C40.9491353,59.4228774 41.1620127,59.3619186 41.3763376,59.3000688 L40.7377049,58.8196721 L40.7377049,59.482945 Z M40.7377049,65.8002562 L40.7377049,66.1721311 L41.0931159,65.6934935 C40.974231,65.7294068 40.8557606,65.7649944 40.7377049,65.8002562 Z M7.85245902,65.7838497 C7.7276968,65.7521068 7.60247376,65.7201022 7.47678996,65.687836 L7.85245902,66.1721311 L7.85245902,65.7838497 Z M7.85245902,59.482945 L7.85245902,58.8196721 L7.21382631,59.3000688 C7.4281512,59.3619186 7.64102864,59.4228774 7.85245902,59.482945 Z M7.85245902,59.482945 C14.966899,61.504166 20.4428819,62.5163934 24.295082,62.5163934 C28.147282,62.5163934 33.6232649,61.504166 40.7377049,59.482945 L40.7377049,65.8002562 C33.8463758,67.8586155 28.3679264,68.8071304 24.3143112,68.6511194 C20.2413433,68.4943635 14.7514309,67.5391376 7.85245902,65.7838497 L7.85245902,59.482945 Z"></path>
                </g>
                <g id="Group" transform="translate(56.920331, 22.726556) rotate(-13.000000) translate(-56.920331, -22.726556) translate(35.981806, 20.968359)">
                    <rect id="Rectangle-2" fill="#000000" x="8.63114754" y="0" width="33.2459016" height="3.51639344"></rect>
                    <g id="Rectangle-2">
                        <use fill="#FFFFFF" fill-rule="evenodd" xlink:href="#path-3"></use>
                        <rect stroke="#000000" stroke-width="1" x="0.5" y="0.5" width="7.63114754" height="2.51639344"></rect>
                    </g>
                </g>
            </g>
        </g>
    </g>
</svg>